<svg width="26" height="9" viewBox="0 0 26 9" fill="none" xmlns="http://www.w3.org/2000/svg">
<path d="M12.016 1.27158H12.0158L10.3998 8.0042H10.4998V8.00395V3.08832C10.4998 2.28758 11.1765 1.63003 12.0155 1.63C12.0155 1.63 12.0155 1.63 12.0156 1.63L13.5201 1.63202C13.5201 1.63202 13.5202 1.63202 13.5202 1.63202C14.3566 1.63372 15.0308 2.29052 15.0305 3.08829V3.08832V4.13445C15.0305 4.93525 14.354 5.59303 13.5148 5.59303H11.3879C11.2908 5.59303 11.2058 5.66985 11.2058 5.77224C11.2058 5.87462 11.2908 5.95144 11.3879 5.95144H13.5148H13.5148C14.5481 5.95118 15.3948 5.13975 15.3948 4.13445V3.08832C15.3948 2.08614 14.5509 1.27574 13.5208 1.27361L13.5207 1.27361L12.016 1.27158Z" fill="#3D3D3D" stroke="#3D3D3D" stroke-width="0.2"/>
<path d="M16.8008 5.79476C16.8008 5.89715 16.8858 5.97397 16.983 5.97397C17.0801 5.97397 17.1651 5.89715 17.1651 5.79476V2.12291C17.1651 1.65005 16.7674 1.27158 16.2861 1.27158H15.6333C15.5361 1.27158 15.4511 1.3484 15.4511 1.45079C15.4511 1.55318 15.5361 1.63 15.6333 1.63H16.2861C16.5733 1.63 16.8008 1.85457 16.8008 2.12291V5.79476Z" fill="#3D3D3D" stroke="#3D3D3D" stroke-width="0.2"/>
<path d="M16.8429 0.880637L16.5469 0.594936C16.4735 0.524333 16.4735 0.409446 16.5469 0.33859L16.8429 0.0531419C16.9163 -0.017714 17.0357 -0.017714 17.1092 0.0531419L17.4049 0.33859C17.4784 0.409192 17.4784 0.52408 17.4049 0.594936L17.1079 0.880637C17.0344 0.951493 16.9153 0.951493 16.8418 0.880637" fill="#32BCAD"/>
<path d="M19.8986 1.67277L19.8986 1.67273C19.627 1.41101 19.2664 1.26719 18.8839 1.26719H18.8839H18.8839H18.8839H18.8839H18.8839H18.8839H18.8839H18.8839H18.8839H18.8839H18.8839H18.8839H18.8839H18.8839H18.8839H18.8839H18.8839H18.8839H18.8839H18.8839H18.8839H18.8839H18.8839H18.8839H18.8839H18.8839H18.8839H18.8839H18.8839H18.8839H18.8839H18.8839H18.8838H18.8838H18.8838H18.8838H18.8838H18.8838H18.8838H18.8838H18.8838H18.8838H18.8838H18.8838H18.8838H18.8838H18.8838H18.8838H18.8838H18.8838H18.8838H18.8838H18.8838H18.8838H18.8838H18.8838H18.8838H18.8838H18.8838H18.8838H18.8838H18.8838H18.8838H18.8838H18.8838H18.8838H18.8838H18.8838H18.8838H18.8838H18.8838H18.8838H18.8838H18.8838H18.8838H18.8838H18.8838H18.8838H18.8838H18.8838H18.8838H18.8838H18.8838H18.8838H18.8838H18.8838H18.8838H18.8838H18.8838H18.8838H18.8838H18.8838H18.8838H18.8838H18.8838H18.8838H18.8838H18.8838H18.8838H18.8838H18.8838H18.8838H18.8838H18.8838H18.8838H18.8838H18.8838H18.8838H18.8838H18.8838H18.8838H18.8838H18.8838H18.8838H18.8838H18.8838H18.8838H18.8838H18.8838H18.8838H18.8838H18.8838H18.8838H18.8838H18.8838H18.8838H18.8838H18.8838H18.8838H18.8838H18.8838H18.8838H18.8838H18.8838H18.8838H18.8838H18.8838H18.8838H18.8838H18.8838H18.8838H18.8838H18.8838H18.8838H18.8838H18.8838H18.8838H18.8838H18.8838H18.8838H18.8838H18.8838H18.8838H18.8838H18.8838H18.8838H18.8838H18.8838H18.8838H18.8838H18.8838H18.8838H18.8838H18.8837H18.8837H18.8837H18.8837H18.8837H18.8837H18.8837H18.8837H18.8837H18.8837H18.8837H18.8837H18.8837H18.8837H18.8837H18.8837H18.8837H18.8837H18.8837H18.8837H18.8837H18.8837H18.8837H18.8837H18.8837H18.8837H18.8837H18.8837H18.8837H18.8837H18.8837H18.8837H18.8837H18.8837H18.8837H18.8837H18.8837H18.8837H18.8837H18.8837H18.8837H18.8837H18.8837H18.8837H18.8837H18.8837H18.8837H18.8837H18.8837H18.8837H18.8837H18.8837H18.8837H18.8837H18.8837H18.8837H18.8837H18.8837H18.8837H18.8837H18.8837H18.8837H18.8837H18.8837H18.8837H18.8837H18.8837H18.8837H18.8837H18.8837H18.8837H18.8837H18.8837H18.8837H18.8837H18.8837H18.8837H18.8837H18.8837H18.8837H18.8837H18.8837H18.8837H18.8837H18.8837H18.8837H18.8836H18.8836H18.8836H18.8836H18.8836H18.8836H18.8836H18.8836H18.8836H18.8836H18.8836H18.8836H18.8836H18.8836H18.8836H18.8836H18.8836H18.8836H18.8836H18.8836H18.8836H18.8836H18.8836H18.8836H18.8836H18.8836H18.8836H18.8836H18.8836H18.8836H18.8836H18.8836H18.8836H18.8836H18.8836H18.8836H18.8836H18.8836H18.8836H18.8836H18.8836H18.8836H18.8836H18.8836H18.8836H18.8836H18.8836H18.8836H18.8836H18.8836H18.8836H18.8836H18.8836H18.8836H18.8836H18.8836H18.8836H18.8836H18.8836H18.8836H18.8836H18.8836H18.8836H18.8836H18.8836H18.8836H18.8836H18.8836H18.8836H18.8836H18.8836H18.8836H18.8836H18.8835H18.8835H18.8835H18.8835H18.8835H18.8835H18.8835H18.8835H18.8835H18.8835H18.8835H18.8835H18.8835H18.8835H18.8835H18.8835H18.8835H18.8835H18.8835H18.8835H18.8835H18.8835H18.8835H18.8835H18.8835H18.8835H18.8835H18.8835H18.8835H18.8835H18.8835H18.8835H18.8835H18.8835H18.8835H18.8835H18.8835H18.8835H18.8835H18.8835H18.8835H18.8835H18.8835H18.8835H18.8835H18.8835H18.8835H18.8835H18.8835H18.8835H18.8835H18.8835H18.8835H18.8835H18.8835H18.8835H18.8835H18.8835H18.8835H18.8835H18.8835H18.8835H18.8835H18.8835H18.8835H18.8835H18.8835H18.8835H18.8834H18.8834H18.8834H18.8834H18.8834H18.8834H18.8834H18.8834H18.8834H18.8834H18.8834H18.8834H18.8834H18.8834H18.8834H18.8834H18.8834H18.8834H18.8834H18.8834H18.8834H18.8834H18.8834H18.8834H18.8834H18.8834H18.8834H18.8834H18.8834H18.8834H18.8834H18.8834H18.8834H18.8834H18.8834H18.8834H18.8834H18.8834H18.8834H18.8834H18.8834H18.8834H18.8834H18.8834H18.8834H18.8834H18.8834H18.8834H18.8834H18.8834H18.8834H18.8834H18.8834H18.8834H18.8834H18.8834H18.8834H18.8834H18.8834H18.8834H18.8834H18.8834H18.8834H18.8834H18.8834H18.8834H18.8833H18.8833H18.8833H18.2361C18.1389 1.26719 18.0539 1.34401 18.0539 1.44639C18.0539 1.54878 18.1389 1.6256 18.2361 1.6256H18.8833H18.8833H18.8833H18.8834H18.8834H18.8834H18.8834H18.8834H18.8834H18.8834H18.8834H18.8834H18.8834H18.8834H18.8834H18.8834H18.8834H18.8834H18.8834H18.8834H18.8834H18.8834H18.8834H18.8834H18.8834H18.8834H18.8834H18.8834H18.8834H18.8834H18.8834H18.8834H18.8834H18.8834H18.8834H18.8834H18.8834H18.8834H18.8834H18.8834H18.8834H18.8834H18.8834H18.8834H18.8834H18.8834H18.8834H18.8834H18.8834H18.8834H18.8834H18.8834H18.8834H18.8834H18.8834H18.8834H18.8834H18.8834H18.8834H18.8834H18.8834H18.8834H18.8834H18.8834H18.8834H18.8834H18.8834H18.8834H18.8834H18.8834H18.8834H18.8834H18.8834H18.8834H18.8834H18.8834H18.8834H18.8834H18.8834H18.8835H18.8835H18.8835H18.8835H18.8835H18.8835H18.8835H18.8835H18.8835H18.8835H18.8835H18.8835H18.8835H18.8835H18.8835H18.8835H18.8835H18.8835H18.8835H18.8835H18.8835H18.8835H18.8835H18.8835H18.8835H18.8835H18.8835H18.8835H18.8835H18.8835H18.8835H18.8835H18.8835H18.8835H18.8835H18.8835H18.8835H18.8835H18.8835H18.8835H18.8835H18.8835H18.8835H18.8835H18.8835H18.8835H18.8835H18.8835H18.8835H18.8835H18.8835H18.8835H18.8835H18.8835H18.8835H18.8835H18.8835H18.8835H18.8835H18.8835H18.8835H18.8835H18.8835H18.8835H18.8835H18.8835H18.8835H18.8835H18.8835H18.8835H18.8835H18.8835H18.8835H18.8835H18.8835H18.8835H18.8835H18.8835H18.8835H18.8835H18.8835H18.8835H18.8835H18.8835H18.8835H18.8835H18.8835H18.8835H18.8835H18.8835H18.8835H18.8835H18.8835H18.8835H18.8835H18.8835H18.8835H18.8835H18.8835H18.8835H18.8835H18.8835H18.8835H18.8835H18.8836H18.8836H18.8836H18.8836H18.8836H18.8836H18.8836H18.8836H18.8836H18.8836H18.8836H18.8836H18.8836H18.8836H18.8836H18.8836H18.8836H18.8836H18.8836H18.8836H18.8836H18.8836H18.8836H18.8836H18.8836H18.8836H18.8836H18.8836H18.8836H18.8836H18.8836H18.8836H18.8836H18.8836H18.8836H18.8836H18.8836H18.8836H18.8836H18.8836H18.8836H18.8836H18.8836H18.8836H18.8836H18.8836H18.8836H18.8836H18.8836H18.8836H18.8836H18.8836H18.8836H18.8836H18.8836H18.8836H18.8836H18.8836H18.8836H18.8836H18.8836H18.8836H18.8836H18.8836H18.8836H18.8836H18.8836H18.8836H18.8836H18.8836H18.8836H18.8836H18.8836H18.8836H18.8836H18.8836H18.8836H18.8836H18.8836H18.8836H18.8836H18.8836H18.8836H18.8836H18.8836H18.8836H18.8836H18.8836H18.8836H18.8836H18.8836H18.8836H18.8836H18.8836H18.8836H18.8836H18.8836H18.8836H18.8836H18.8836H18.8836H18.8836H18.8836H18.8836H18.8836H18.8836H18.8836H18.8836H18.8836H18.8836H18.8836H18.8836H18.8836H18.8836H18.8836H18.8836H18.8836H18.8836H18.8836H18.8836H18.8836H18.8836H18.8836H18.8836H18.8836H18.8836H18.8836H18.8837H18.8837H18.8837H18.8837H18.8837H18.8837H18.8837H18.8837H18.8837H18.8837H18.8837H18.8837H18.8837H18.8837H18.8837H18.8837H18.8837H18.8837H18.8837H18.8837H18.8837H18.8837H18.8837H18.8837H18.8837H18.8837H18.8837H18.8837H18.8837H18.8837H18.8837H18.8837H18.8837H18.8837H18.8837H18.8837H18.8837H18.8837H18.8837H18.8837H18.8837H18.8837H18.8837H18.8837H18.8837H18.8837H18.8837H18.8837H18.8837H18.8837H18.8837H18.8837H18.8837H18.8837H18.8837H18.8837H18.8837H18.8837H18.8837H18.8837H18.8837H18.8837H18.8837H18.8837H18.8837H18.8837H18.8837H18.8837H18.8837H18.8837H18.8837H18.8837H18.8837H18.8837H18.8837H18.8837H18.8837H18.8837H18.8837H18.8837H18.8837H18.8837H18.8837H18.8837H18.8837H18.8837H18.8837H18.8837H18.8837H18.8837H18.8837H18.8837H18.8837H18.8837H18.8837H18.8837H18.8837H18.8837H18.8837H18.8837H18.8837H18.8837H18.8837H18.8837H18.8837H18.8837H18.8837H18.8837H18.8837H18.8838H18.8838H18.8838H18.8838H18.8838H18.8838H18.8838H18.8838H18.8838H18.8838H18.8838H18.8838H18.8838H18.8838H18.8838H18.8838H18.8838H18.8838H18.8838H18.8838H18.8838H18.8838H18.8838H18.8838H18.8838H18.8838H18.8838H18.8838H18.8838H18.8838H18.8838H18.8838H18.8838H18.8838H18.8838H18.8838H18.8838H18.8838H18.8838H18.8838H18.8838H18.8838H18.8838H18.8838H18.8838H18.8838H18.8838H18.8838H18.8838H18.8838H18.8838H18.8838H18.8838H18.8838H18.8838H18.8838H18.8838H18.8838H18.8838H18.8838H18.8838H18.8838H18.8838H18.8838H18.8838H18.8838H18.8838H18.8838H18.8838H18.8838H18.8838H18.8838H18.8838H18.8838H18.8838H18.8838H18.8838H18.8838H18.8838H18.8838H18.8839H18.8839H18.8839H18.8839H18.8839H18.8839H18.8839H18.8839H18.8839H18.8839H18.8839H18.8839H18.8839H18.8839C19.1718 1.6256 19.4414 1.73338 19.6438 1.92858L21.1579 3.38889L21.2274 3.31699L21.158 3.38897L21.158 3.38892C21.2917 3.51816 21.4667 3.58198 21.6407 3.58198C21.8141 3.58198 21.9888 3.51847 22.122 3.38998L22.1228 3.38923L22.1229 3.3892L23.6315 1.93444C23.8339 1.73939 24.1033 1.63142 24.391 1.63142H24.391H24.391H24.391H24.391H24.391H24.391H24.391H24.391H24.391H24.391H24.391H24.391H24.391H24.391H24.391H24.391H24.391H24.391H24.391H24.391H24.3911H24.3911H24.3911H24.3911H24.3911H24.3911H24.3911H24.3911H24.3911H24.3911H24.3911H24.3911H24.3911H24.3911H24.3911H24.3911H24.3911H24.3911H24.3911H24.3911H24.3911H24.3911H24.3912H24.3912H24.3912H24.3912H24.3912H24.3912H24.3912H24.3912H24.3912H24.3912H24.3912H24.3912H24.3912H24.3912H24.3912H24.3912H24.3912H24.3912H24.3912H24.3912H24.3912H24.3913H24.3913H24.3913H24.3913H24.3913H24.3913H24.3913H24.3913H24.3913H24.3913H24.3913H24.3913H24.3913H24.3913H24.3913H24.3913H24.3913H24.3913H24.3913H24.3913H24.3913H24.3913H24.3914H24.3914H24.3914H24.3914H24.3914H24.3914H24.3914H24.3914H24.3914H24.3914H24.3914H24.3914H24.3914H24.3914H24.3914H24.3914H24.3914H24.3914H24.3914H24.3914H24.3914H24.3914H24.3915H24.3915H24.3915H24.3915H24.3915H24.3915H24.3915H24.3915H24.3915H24.3915H24.3915H24.3915H24.3915H24.3915H24.3915H24.3915H24.3915H24.3915H24.3915H24.3915H24.3915H24.3916H24.3916H24.3916H24.3916H24.3916H24.3916H24.3916H24.3916H24.3916H24.3916H24.3916H24.3916H24.3916H24.3916H24.3916H24.3916H24.3916H24.3916H24.3916H24.3916H24.3916H24.3916H24.3917H24.3917H24.3917H24.3917H24.3917H24.3917H24.3917H24.3917H24.3917H24.3917H24.3917H24.3917H24.3917H24.3917H24.3917H24.3917H24.3917H24.3917H24.3917H24.3917H24.9181C25.0153 1.63142 25.1002 1.5546 25.1002 1.45221C25.1002 1.34983 25.0153 1.27301 24.9181 1.27301H24.3917H24.3917H24.3917H24.3917H24.3917H24.3917H24.3917H24.3917H24.3917H24.3917H24.3917H24.3917H24.3917H24.3917H24.3917H24.3917H24.3917H24.3917H24.3917H24.3917H24.3917H24.3916H24.3916H24.3916H24.3916H24.3916H24.3916H24.3916H24.3916H24.3916H24.3916H24.3916H24.3916H24.3916H24.3916H24.3916H24.3916H24.3916H24.3916H24.3916H24.3916H24.3916H24.3915H24.3915H24.3915H24.3915H24.3915H24.3915H24.3915H24.3915H24.3915H24.3915H24.3915H24.3915H24.3915H24.3915H24.3915H24.3915H24.3915H24.3915H24.3915H24.3915H24.3915H24.3915H24.3914H24.3914H24.3914H24.3914H24.3914H24.3914H24.3914H24.3914H24.3914H24.3914H24.3914H24.3914H24.3914H24.3914H24.3914H24.3914H24.3914H24.3914H24.3914H24.3914H24.3914H24.3914H24.3913H24.3913H24.3913H24.3913H24.3913H24.3913H24.3913H24.3913H24.3913H24.3913H24.3913H24.3913H24.3913H24.3913H24.3913H24.3913H24.3913H24.3913H24.3913H24.3913H24.3913H24.3912H24.3912H24.3912H24.3912H24.3912H24.3912H24.3912H24.3912H24.3912H24.3912H24.3912H24.3912H24.3912H24.3912H24.3912H24.3912H24.3912H24.3912H24.3912H24.3912H24.3912H24.3912H24.3911H24.3911H24.3911H24.3911H24.3911H24.3911H24.3911H24.3911H24.3911H24.3911H24.3911H24.3911H24.3911H24.3911H24.3911H24.3911H24.3911H24.3911H24.3911H24.3911H24.3911H24.3911H24.391H24.391H24.391H24.391H24.391H24.391H24.391H24.391H24.391H24.391H24.391H24.391H24.391H24.391H24.391H24.391H24.391H24.391H24.391H24.391C24.0087 1.27301 23.6481 1.41683 23.3767 1.67858C23.3767 1.67859 23.3767 1.67859 23.3767 1.67859L21.8686 3.13288L21.8686 3.1329L21.8678 3.13361C21.8678 3.13362 21.8678 3.13362 21.8678 3.13363C21.7429 3.25389 21.5379 3.25378 21.4128 3.13316L19.8986 1.67277Z" fill="#3D3D3D" stroke="#3D3D3D" stroke-width="0.2"/>
<path d="M22.123 3.81866L22.1231 3.81874L23.6318 5.27382C23.8342 5.46902 24.1038 5.57679 24.3915 5.57679H24.3917H24.9181C25.0153 5.57679 25.1002 5.65361 25.1002 5.756C25.1002 5.85839 25.0153 5.93521 24.9181 5.93521H24.3917H24.3917H24.3917H24.3917H24.3917H24.3917H24.3917H24.3917H24.3917H24.3917H24.3917H24.3917H24.3917H24.3917H24.3917H24.3917H24.3917H24.3917H24.3917H24.3917H24.3917H24.3917H24.3917H24.3917H24.3916H24.3916H24.3916H24.3916H24.3916H24.3916H24.3916H24.3916H24.3916H24.3916H24.3916H24.3916H24.3916H24.3916H24.3916H24.3916H24.3916H24.3916H24.3916H24.3916H24.3916H24.3916H24.3916H24.3916H24.3915H24.3915H24.3915H24.3915H24.3915H24.3915H24.3915H24.3915H24.3915H24.3915H24.3915H24.3915H24.3915H24.3915H24.3915H24.3915H24.3915H24.3915H24.3915H24.3915H24.3915H24.3915H24.3915H24.3915H24.3915H24.3914H24.3914H24.3914H24.3914H24.3914H24.3914H24.3914H24.3914H24.3914H24.3914H24.3914H24.3914H24.3914H24.3914H24.3914H24.3914H24.3914H24.3914H24.3914H24.3914H24.3914H24.3914H24.3914H24.3913H24.3913H24.3913H24.3913H24.3913H24.3913H24.3913H24.3913H24.3913H24.3913H24.3913H24.3913H24.3913H24.3913H24.3913H24.3913H24.3913H24.3913H24.3913H24.3913H24.3913H24.3913H24.3912H24.3912H24.3912H24.3912H24.3912H24.3912H24.3912C24.0087 5.93521 23.6481 5.79139 23.3765 5.52966L23.3764 5.52962L21.8678 4.07455C21.7428 3.95405 21.5376 3.95396 21.4123 4.07455L22.123 3.81866ZM22.123 3.81866C21.8564 3.56208 21.4243 3.56166 21.1578 3.81874L19.6436 5.27909C19.6436 5.2791 19.6436 5.27911 19.6436 5.27912C19.6436 5.27912 19.6436 5.27913 19.6436 5.27913C19.4411 5.47412 19.1715 5.58211 18.8836 5.58211H18.8833H18.2361C18.1389 5.58211 18.0539 5.65893 18.0539 5.76131C18.0539 5.8637 18.1389 5.94052 18.2361 5.94052H18.8833H18.8833H18.8834H18.8834H18.8834H18.8834H18.8834H18.8834H18.8834H18.8834H18.8834H18.8834H18.8834H18.8834H18.8834H18.8834H18.8834H18.8834H18.8834H18.8834H18.8834H18.8834H18.8834H18.8834H18.8834H18.8834H18.8834H18.8834H18.8834H18.8834H18.8834H18.8834H18.8834H18.8834H18.8834H18.8835H18.8835H18.8835H18.8835H18.8835H18.8835H18.8835H18.8835H18.8835H18.8835H18.8835H18.8835H18.8835H18.8835H18.8835H18.8835H18.8835H18.8835H18.8835H18.8835H18.8835H18.8835H18.8835H18.8835H18.8835H18.8835H18.8835H18.8835H18.8835H18.8835H18.8835H18.8835H18.8835H18.8835H18.8836H18.8836H18.8836H18.8836H18.8836H18.8836H18.8836H18.8836H18.8836H18.8836H18.8836H18.8836H18.8836H18.8836H18.8836H18.8836H18.8836H18.8836H18.8836H18.8836H18.8836H18.8836H18.8836H18.8836H18.8836H18.8836H18.8836H18.8836H18.8836H18.8836H18.8836H18.8836H18.8836H18.8836H18.8836H18.8836H18.8837H18.8837H18.8837H18.8837H18.8837H18.8837H18.8837H18.8837H18.8837H18.8837H18.8837H18.8837H18.8837H18.8837H18.8837H18.8837H18.8837H18.8837H18.8837H18.8837H18.8837H18.8837H18.8837H18.8837H18.8837H18.8837H18.8837H18.8837H18.8837H18.8837H18.8837H18.8837H18.8837H18.8837H18.8837H18.8837H18.8837H18.8837H18.8837H18.8837H18.8837H18.8837H18.8837H18.8838H18.8838H18.8838H18.8838H18.8838H18.8838H18.8838H18.8838H18.8838H18.8838H18.8838H18.8838H18.8838H18.8838H18.8838H18.8838H18.8838H18.8838H18.8838H18.8838H18.8838H18.8838H18.8838H18.8838H18.8838H18.8838H18.8838H18.8838H18.8838H18.8838H18.8838H18.8838H18.8838H18.8838H18.8838H18.8838H18.8838H18.8838H18.8838H18.8838H18.8838H18.8838H18.8838H18.8838H18.8838H18.8838H18.8838H18.8839H18.8839H18.8839H18.8839H18.8839H18.8839H18.8839H18.8839H18.8839H18.8839C19.2663 5.94052 19.6272 5.79673 19.8982 5.53487L21.4123 4.0746L22.123 3.81866Z" fill="#3D3D3D" stroke="#3D3D3D" stroke-width="0.2"/>
<path d="M6.45865 6.69393C6.13619 6.69494 5.82631 6.5717 5.59857 6.35154L4.3562 5.15256C4.26489 5.06829 4.12111 5.06829 4.0298 5.15256L2.78324 6.35483C2.55549 6.5755 2.24588 6.69899 1.92316 6.69823H1.67993L3.25421 8.21657C3.74591 8.68979 4.5417 8.68979 5.0334 8.21657L6.61083 6.69494L6.45865 6.69393Z" fill="#32BCAD"/>
<path d="M1.92342 2.45706C2.24615 2.4563 2.55575 2.57979 2.7835 2.80046L4.03006 4.00298C4.12032 4.08978 4.26621 4.08978 4.35646 4.00298L5.59857 2.80501C5.82605 2.58409 6.13592 2.46035 6.45865 2.46136H6.60821L5.03078 0.939986C4.53961 0.466011 3.74328 0.466011 3.25185 0.939733L3.25158 0.939986L1.67993 2.45706H1.92342Z" fill="#32BCAD"/>
<path d="M7.91297 3.72077L6.95975 2.80141C6.93823 2.80976 6.91541 2.81432 6.89206 2.81457H6.4586C6.23296 2.81508 6.01676 2.90162 5.85697 3.05497L4.61486 4.25218C4.38187 4.47639 4.00483 4.47639 3.77184 4.25218L2.52501 3.05042C2.36522 2.89681 2.14902 2.81027 1.92337 2.80976H1.39127C1.36923 2.80926 1.34771 2.80521 1.32725 2.79736L0.367987 3.72077C-0.122662 4.19499 -0.122662 4.96251 0.367987 5.43674L1.32515 6.35989C1.34561 6.35205 1.36713 6.34775 1.38917 6.34749H1.92337C2.14902 6.34673 2.36522 6.26044 2.52501 6.10684L3.77158 4.90456C3.99696 4.68744 4.38974 4.68744 4.61486 4.90456L5.85697 6.10228C6.01676 6.25563 6.23296 6.34218 6.4586 6.34268H6.89206C6.91541 6.34294 6.93823 6.34724 6.95975 6.35584L7.91297 5.43649C8.40441 4.96277 8.40441 4.19474 7.91324 3.72077C7.91324 3.72077 7.91324 3.72077 7.91297 3.72077Z" fill="#32BCAD"/>
</svg>
